<svg  fill="rgba(12,5,46,0.14)" height="300px" width="400px" viewBox="0 0 400 300" preserveAspectRatio="none" xmlns="http://www.w3.org/2000/svg"><path d="M150.25,58l-7.2-3.5a20.42,20.42,0,1,1,36.71,17.88l-7.19-3.5A12.42,12.42,0,0,0,150.25,58ZM20.93,48.68l-6.17-5.1A12.41,12.41,0,0,1,0,46.94v8.48a20.6,20.6,0,0,0,5.17.67A20.38,20.38,0,0,0,20.93,48.68Zm376.35-3.43a12.43,12.43,0,0,1-1.67-17.48l-6.17-5.09a20.44,20.44,0,0,0,2.75,28.74,20.19,20.19,0,0,0,7.81,4V46.94A12.17,12.17,0,0,1,397.28,45.25Zm-137.62,153h-.09l0,8a12.43,12.43,0,0,1,12.47,12.37l8,0A20.44,20.44,0,0,0,259.66,198.2ZM97,210.39a12.41,12.41,0,0,1-20.45,10.38,12.28,12.28,0,0,1-4.3-8.47l-8,.62a20.44,20.44,0,0,0,20.34,18.84q.8,0,1.59-.06A20.43,20.43,0,0,0,105,209.77ZM227.69,42.08l6.62,4.5,22-32.33-6.62-4.5ZM36.75,154.67,8.15,128,2.7,133.84l28.59,26.68ZM359.28,258l5.48,5.83,28.51-26.77-5.47-5.83ZM310.33,115.33a13,13,0,1,1-13-13A13,13,0,0,1,310.33,115.33Zm-8,0a5,5,0,1,0-5,5A5,5,0,0,0,302.33,115.33ZM38,268.62a13,13,0,1,1-13-13A13,13,0,0,1,38,268.62Zm-8,0a5,5,0,1,0-5,5A5,5,0,0,0,30,268.62Zm165.45-43.47a9,9,0,1,0,9,9A9,9,0,0,0,195.47,225.15ZM365.14,57.48a9,9,0,1,0-9,9A9,9,0,0,0,365.14,57.48ZM172.83,164.26a6.36,6.36,0,1,0-6.36,6.36A6.37,6.37,0,0,0,172.83,164.26Zm176,6.73a4.69,4.69,0,1,0,4.68,4.69A4.69,4.69,0,0,0,348.8,171ZM263.15,287.32a4.68,4.68,0,1,0,4.68,4.68A4.67,4.67,0,0,0,263.15,287.32ZM77.47,96.73a9,9,0,1,0-9-9A9,9,0,0,0,77.47,96.73Zm24.63,33.69-7.16,17.09L112,154.68A18.54,18.54,0,0,0,102.1,130.42ZM217,129.1l18-4.37-4.37-18A18.52,18.52,0,0,0,217,129.1ZM88.76,0H74.07l6.51,7.3ZM68.25,293.46,74.07,300H88.76l5.65-5A18.54,18.54,0,0,0,68.25,293.46Z"/></svg>